<svg width="64" height="64" viewBox="0 0 64 64" fill="none" xmlns="http://www.w3.org/2000/svg">
<g clip-path="url(#clip0_2_3)">
<path d="M32 0C25.671 0 19.4841 1.87677 14.2218 5.39297C8.95939 8.90918 4.85787 13.9069 2.43587 19.7541C0.013865 25.6014 -0.619842 32.0355 0.614885 38.2429C1.84961 44.4503 4.89732 50.1521 9.3726 54.6274C13.8479 59.1027 19.5497 62.1504 25.7571 63.3851C31.9645 64.6199 38.3986 63.9861 44.2459 61.5641C50.0931 59.1421 55.0908 55.0406 58.607 49.7782C62.1232 44.5159 64 38.329 64 32C64 23.5131 60.6286 15.3737 54.6274 9.37258C48.6263 3.37142 40.4869 0 32 0ZM32 58.67C26.7252 58.67 21.5688 57.1058 17.183 54.1753C12.7971 51.2448 9.37874 47.0795 7.36015 42.2062C5.34156 37.3329 4.8134 31.9704 5.84247 26.7969C6.87154 21.6235 9.41161 16.8713 13.1415 13.1415C16.8713 9.4116 21.6235 6.87152 26.797 5.84246C31.9704 4.81339 37.3329 5.34154 42.2062 7.36013C47.0795 9.37872 51.2448 12.7971 54.1753 17.1829C57.1058 21.5688 58.67 26.7252 58.67 32C58.6568 39.0693 55.8427 45.8452 50.844 50.8439C45.8452 55.8427 39.0693 58.6568 32 58.67Z" fill="#E88039"/>
<path d="M43.55 34.67L36.45 29.33L34.67 28V13.33C34.67 12.6219 34.3887 11.9428 33.888 11.442C33.3872 10.9413 32.7081 10.66 32 10.66C31.2919 10.66 30.6127 10.9413 30.112 11.442C29.6113 11.9428 29.33 12.6219 29.33 13.33V29.33C29.332 29.5391 29.3589 29.7472 29.41 29.95C29.4579 30.1457 29.5319 30.334 29.63 30.51C29.6987 30.6853 29.7968 30.8476 29.92 30.99C29.92 30.99 29.92 31.07 30 31.09C30.1108 31.2193 30.2348 31.3366 30.37 31.44L30.48 31.52L34.64 34.64L41.04 39.44C41.4993 39.7901 42.0625 39.9767 42.64 39.97C43.1987 39.9679 43.7426 39.7906 44.1952 39.4631C44.6479 39.1356 44.9864 38.6744 45.163 38.1444C45.3397 37.6143 45.3457 37.0422 45.1801 36.5087C45.0145 35.9751 44.6857 35.5069 44.24 35.17L43.55 34.67Z" fill="#E88039"/>
</g>
<defs>
<clipPath id="clip0_2_3">
<rect width="64" height="64" fill="white"/>
</clipPath>
</defs>
</svg>
