<svg width="26" height="26" viewBox="0 0 26 26" fill="none" xmlns="http://www.w3.org/2000/svg">
<path d="M14.0605 13L24.7803 2.28027C25.0732 1.9873 25.0732 1.5127 24.7803 1.21973C24.4873 0.926758 24.0127 0.926758 23.7197 1.21973L13 11.9395L2.28027 1.21973C1.9873 0.926758 1.5127 0.926758 1.21973 1.21973C0.926758 1.5127 0.926758 1.9873 1.21973 2.28027L11.9395 13L1.21973 23.7197C0.926758 24.0127 0.926758 24.4873 1.21973 24.7803C1.36621 24.9268 1.55762 25 1.75 25C1.94238 25 2.13379 24.9268 2.28027 24.7803L13 14.0605L23.7197 24.7803C23.8662 24.9268 24.0576 25 24.25 25C24.4424 25 24.6338 24.9268 24.7803 24.7803C25.0732 24.4873 25.0732 24.0127 24.7803 23.7197L14.0605 13Z" fill="white"/>
</svg>
