<svg width="402" height="402" viewBox="0 0 402 402" fill="none" xmlns="http://www.w3.org/2000/svg">
<g clip-path="url(#clip0_2_26)">
<path d="M345.176 382.016L335.18 336.624C334.613 333.955 333.185 331.956 330.896 330.629C328.421 329.294 325.948 329.109 323.476 330.061L322.046 330.629L318.616 331.484C317.091 331.86 315.331 332.292 313.333 332.767C311.334 333.243 309.007 333.715 306.338 334.194C303.683 334.67 300.862 335.101 297.919 335.481C294.97 335.854 291.787 336.193 288.358 336.48C284.928 336.761 281.506 336.905 278.077 336.905C253.903 336.905 232.155 330.388 212.838 317.35C193.518 304.308 179.29 286.654 170.155 264.389H280.641C282.739 264.389 284.642 263.677 286.349 262.246C288.068 260.822 289.115 259.063 289.488 256.962L296.34 224.985C296.914 222.138 296.34 219.565 294.632 217.279C292.729 214.993 290.344 213.849 287.493 213.849H156.453C155.882 200.907 155.882 190.915 156.453 183.871H295.778C300.922 183.871 303.964 181.399 304.915 176.45L311.767 143.902C312.334 141.238 311.678 138.766 309.768 136.48C308.061 134.196 305.682 133.049 302.636 133.049H169.016C178.533 111.732 192.807 94.983 211.843 82.801C230.877 70.616 252.385 64.527 276.367 64.527C277.131 64.147 279.936 64.243 284.786 64.813C289.639 65.381 292.404 65.621 293.067 65.525C293.724 65.431 296.209 65.718 300.487 66.38C304.771 67.046 306.914 67.38 306.914 67.38L311.91 68.378C313.341 68.666 314.435 68.9 315.195 69.093L316.338 69.377C318.81 70.142 321.088 69.902 323.19 68.666C325.285 67.425 326.619 65.572 327.191 63.098L339.469 17.703C340.037 15.228 339.749 12.944 338.614 10.851C336.899 8.563 334.993 7.136 332.899 6.567C315.39 2.19 296.92 0 277.51 0C234.869 0 196.759 12.185 163.163 36.545C129.568 60.907 106.393 93.077 93.64 133.046H65.663C62.997 133.046 60.81 133.901 59.096 135.614C57.387 137.325 56.528 139.515 56.528 142.181V174.729C56.528 177.393 57.384 179.583 59.096 181.292C60.811 183.007 63.001 183.86 65.663 183.86H84.793C84.218 192.999 84.127 202.986 84.505 213.841H65.663C63.189 213.841 61.048 214.744 59.24 216.552C57.433 218.359 56.528 220.501 56.528 222.972V255.236C56.528 257.714 57.433 259.849 59.24 261.663C61.049 263.471 63.189 264.367 65.663 264.367H92.787C104.778 306.431 127.43 339.887 160.739 364.724C194.05 389.57 232.974 401.985 277.51 401.985C281.13 401.985 284.792 401.896 288.505 401.698C292.225 401.507 295.692 401.219 298.929 400.843C302.163 400.466 305.353 400.042 308.494 399.563C311.632 399.084 314.489 398.616 317.056 398.132C319.626 397.66 322.053 397.185 324.335 396.712C326.621 396.23 328.667 395.713 330.478 395.138C332.285 394.574 333.801 394.142 335.043 393.862C336.282 393.575 337.281 393.236 338.037 392.863L339.468 392.575C341.563 391.815 343.181 390.433 344.321 388.431C345.464 386.444 345.744 384.299 345.176 382.016Z" fill="#E88039"/>
</g>
<defs>
<clipPath id="clip0_2_26">
<rect width="401.987" height="401.987" fill="white"/>
</clipPath>
</defs>
</svg>
