<svg width="50" height="50" viewBox="0 0 50 50" fill="none" xmlns="http://www.w3.org/2000/svg">
<path d="M32.2188 2.0625L31.4375 2.375L28.625 3.46875L27.8438 3.78125L28.0312 4.59375L28.625 7.59375C28.332 7.88672 28.0195 8.23047 27.6875 8.59375L24.7188 7.9375L23.9062 7.75L23.5938 8.5L22.375 11.3125L22.0625 12.0625L22.75 12.5312L25.3125 14.25C25.2812 14.7383 25.2852 15.2305 25.3125 15.7188L22.6875 17.3438L21.9688 17.7812L22.2812 18.5625L23.375 21.375L23.6875 22.1562L24.5 21.9688L27.5 21.375C27.8047 21.7383 28.1406 22.0664 28.5 22.375L27.8125 25.375L27.625 26.1875L28.4062 26.5312L31.2188 27.7188L31.9688 28.0312L32.4375 27.3438L34.1562 24.7812C34.6445 24.8125 35.1367 24.8086 35.625 24.7812L37.25 27.4375L37.6875 28.125L38.4688 27.8438L42.0625 26.4062L41.875 25.5938L41.1875 22.3125C41.5625 21.9961 41.9023 21.6562 42.2188 21.2812L45.25 22.0625L46.0938 22.2812L46.4062 21.5L47.625 18.6875L47.9688 17.9062L47.2188 17.4375L44.5938 15.8438C44.625 15.3555 44.6211 14.8633 44.5938 14.375L47.2188 12.75L47.9375 12.3125L47.625 11.5312L46.5312 8.71875L46.2188 7.9375L45.375 8.125L42.3125 8.8125C42.0078 8.44922 41.6719 8.12109 41.3125 7.8125L41.9688 4.8125L42.1562 4L41.4062 3.6875L38.5938 2.46875L37.8125 2.15625L37.3438 2.875L35.75 5.40625C35.2891 5.35938 34.7891 5.40234 34.2812 5.4375L32.6562 2.78125L32.2188 2.0625ZM31.375 4.53125L32.8438 6.9375L33.2188 7.53125L33.9062 7.375C34.6133 7.21875 35.2812 7.30469 36.1875 7.40625L36.8125 7.46875L37.1562 6.9375L38.5938 4.65625L39.8438 5.1875L39.2188 7.875L39.0625 8.53125L39.625 8.90625C40.2383 9.34375 40.75 9.85547 41.1875 10.4688L41.5625 11.0312L42.2188 10.875L44.9688 10.25L45.4688 11.5L43.0625 12.9375L42.5312 13.2812L42.5938 13.9062C42.6875 14.7422 42.6875 15.4453 42.5938 16.2812L42.5312 16.9062L43.0625 17.25L45.4375 18.7188L44.9375 19.9062L42.1562 19.2188L41.4688 19.0625L41.0938 19.625C40.6562 20.2383 40.1445 20.75 39.5312 21.1875L39 21.5625L39.125 22.2188L39.75 25.1875L38.5 25.6562L37.0625 23.2812L36.7188 22.75L36.0938 22.8125C35.2578 22.9062 34.5547 22.9062 33.7188 22.8125L33.0938 22.75L32.7812 23.25L31.25 25.5625L29.9688 25L30.5625 22.3125L30.7188 21.6875L30.1875 21.2812C29.5742 20.8438 29.0625 20.332 28.625 19.7188L28.25 19.1875L27.5938 19.3125L24.9062 19.875L24.4375 18.625L26.8125 17.1562L27.375 16.8125L27.2812 16.1875C27.1875 15.3516 27.1875 14.6484 27.2812 13.8125L27.375 13.2188L26.8438 12.875L24.5312 11.3438L25.0625 10.0625L27.7812 10.6875L28.375 10.8125L28.75 10.3438C29.3203 9.67969 29.9062 9.09375 30.4062 8.59375L30.7812 8.21875L30.6875 7.71875L30.125 5.03125L31.375 4.53125ZM35 10C32.25 10 30 12.25 30 15C30 17.75 32.25 20 35 20C37.75 20 40 17.75 40 15C40 12.25 37.75 10 35 10ZM35 12C36.668 12 38 13.332 38 15C38 16.668 36.668 18 35 18C33.332 18 32 16.668 32 15C32 13.332 33.332 12 35 12ZM13.5312 20L13.4062 20.8438L12.9062 24.0938C12.3633 24.2656 11.8398 24.5156 11.3438 24.7812L7.90625 22.2812L4.40625 25.7812L4.875 26.4688L6.78125 29.2188C6.51172 29.7539 6.27344 30.2891 6.09375 30.8125L2.8125 31.4062L2 31.5625V36.4375L2.8125 36.5938L6.09375 37.1875C6.26953 37.7344 6.51172 38.2461 6.78125 38.75L4.8125 41.4062L4.28125 42.0938L7.78125 45.5938L8.46875 45.125L11.2188 43.2188C11.7539 43.4883 12.2891 43.7266 12.8125 43.9062L13.3125 47.1562L13.4375 48H18.3438L18.4688 47.1875L19.0938 43.9062C19.6367 43.7344 20.1602 43.4844 20.6562 43.2188L24.0938 45.7188L27.5938 42.2188L27.125 41.5312L25.125 38.75C25.3867 38.2227 25.6367 37.7031 25.8125 37.1875L29.1875 36.5938L30 36.4375V31.5312L25.7812 30.9062C25.6094 30.3672 25.3906 29.8398 25.125 29.3438L27.125 26.5938L27.5938 25.9062L27.0312 25.3125L24.7188 22.9062L24.125 22.2812L23.4062 22.7812L20.6562 24.7812C20.1289 24.5195 19.6094 24.2695 19.0938 24.0938L18.5938 20.8438L18.4688 20H13.5312ZM15.25 22H16.75L17.3125 25.5625L17.875 25.75C18.7734 26.0508 19.6133 26.332 20.2812 26.75L20.8438 27.0938L21.375 26.7188L23.875 24.9062L25 26.0938L23.1875 28.625L22.7812 29.1562L23.1562 29.7188C23.6055 30.4375 23.957 31.2695 24.125 32.0312L24.2812 32.6875L24.9375 32.7812L28 33.25V34.7812L24.9375 35.3125L24.3438 35.4062L24.1562 35.9688C23.8555 36.8672 23.5742 37.707 23.1562 38.375L22.7812 38.9375L23.1875 39.4688L25 42L23.875 43.0938L21.375 41.2812L20.8438 40.9062L20.2812 41.25C19.5625 41.6992 18.7305 42.0508 17.9688 42.2188L17.3438 42.375L17.2188 43.0312L16.6875 46H15.1562L14.5938 42.4375L14.0312 42.25C13.1328 41.9492 12.293 41.668 11.625 41.25L11.0625 40.9062L10.5312 41.2812L8 43L6.90625 41.9062L8.6875 39.5L9.125 38.9375L8.75 38.375C8.30078 37.6562 7.94922 36.8555 7.78125 36.0938L7.625 35.4375L6.96875 35.3125L4 34.7812V33.2188L6.96875 32.6875L7.5625 32.5625L7.75 32.0312C8.05078 31.1328 8.33203 30.293 8.75 29.625L9.09375 29.0625L8.71875 28.5312L7 26L8.125 24.9062L10.625 26.7188L11.1562 27.0938L11.7188 26.75C12.4375 26.3008 13.2695 25.9492 14.0312 25.7812L14.6875 25.625L14.7812 24.9688L15.25 22ZM16 29C13.2539 29 11 31.2539 11 34C11 36.7461 13.2539 39 16 39C18.7461 39 21 36.7461 21 34C21 31.2539 18.7461 29 16 29ZM16 31C17.6562 31 19 32.3438 19 34C19 35.6562 17.6562 37 16 37C14.3438 37 13 35.6562 13 34C13 32.3438 14.3438 31 16 31Z" fill="#E88039"/>
</svg>
