<svg width="127" height="100" viewBox="0 0 127 100" fill="none" xmlns="http://www.w3.org/2000/svg">
<path fill-rule="evenodd" clip-rule="evenodd" d="M21.1667 75H105.833C108.744 75 111.125 73.125 111.125 70.8333C111.125 68.5417 108.744 66.6667 105.833 66.6667H21.1667C18.2562 66.6667 15.875 68.5417 15.875 70.8333C15.875 73.125 18.2562 75 21.1667 75ZM21.1667 54.1667H105.833C108.744 54.1667 111.125 52.2917 111.125 50C111.125 47.7083 108.744 45.8333 105.833 45.8333H21.1667C18.2562 45.8333 15.875 47.7083 15.875 50C15.875 52.2917 18.2562 54.1667 21.1667 54.1667ZM15.875 29.1667C15.875 31.4583 18.2562 33.3333 21.1667 33.3333H105.833C108.744 33.3333 111.125 31.4583 111.125 29.1667C111.125 26.875 108.744 25 105.833 25H21.1667C18.2562 25 15.875 26.875 15.875 29.1667Z" fill="white"/>
</svg>
